<?xml version="1.0" encoding="UTF-8" standalone="no"?>
<!-- Created with Inkscape (http://www.inkscape.org/) -->
<svg
   xmlns:dc="http://purl.org/dc/elements/1.1/"
   xmlns:cc="http://creativecommons.org/ns#"
   xmlns:rdf="http://www.w3.org/1999/02/22-rdf-syntax-ns#"
   xmlns:svg="http://www.w3.org/2000/svg"
   xmlns="http://www.w3.org/2000/svg"
   xmlns:sodipodi="http://sodipodi.sourceforge.net/DTD/sodipodi-0.dtd"
   xmlns:inkscape="http://www.inkscape.org/namespaces/inkscape"
   width="744.09448819"
   height="1052.3622047"
   id="svg2464"
   sodipodi:version="0.32"
   inkscape:version="0.46"
   sodipodi:docname="jump.svg"
   inkscape:output_extension="org.inkscape.output.svg.inkscape"
   inkscape:export-filename="/Users/bnash/Documents/workspace/chill_gds_svn/core/config/images/jump.png"
   inkscape:export-xdpi="149.9621"
   inkscape:export-ydpi="149.9621">
  <defs
     id="defs2466">
    <inkscape:perspective
       sodipodi:type="inkscape:persp3d"
       inkscape:vp_x="0 : 526.18109 : 1"
       inkscape:vp_y="0 : 1000 : 0"
       inkscape:vp_z="744.09448 : 526.18109 : 1"
       inkscape:persp3d-origin="372.04724 : 350.78739 : 1"
       id="perspective2472" />
  </defs>
  <sodipodi:namedview
     id="base"
     pagecolor="#ffffff"
     bordercolor="#666666"
     borderopacity="1.0"
     gridtolerance="10000"
     guidetolerance="10"
     objecttolerance="10"
     inkscape:pageopacity="0.0"
     inkscape:pageshadow="2"
     inkscape:zoom="6.274001"
     inkscape:cx="227.10174"
     inkscape:cy="872.00451"
     inkscape:document-units="px"
     inkscape:current-layer="layer1"
     showgrid="false"
     inkscape:window-width="1836"
     inkscape:window-height="1487"
     inkscape:window-x="573"
     inkscape:window-y="22" />
  <metadata
     id="metadata2469">
    <rdf:RDF>
      <cc:Work
         rdf:about="">
        <dc:format>image/svg+xml</dc:format>
        <dc:type
           rdf:resource="http://purl.org/dc/dcmitype/StillImage" />
      </cc:Work>
    </rdf:RDF>
  </metadata>
  <g
     inkscape:label="Layer 1"
     inkscape:groupmode="layer"
     id="layer1">
    <rect
       id="rect2383"
       width="142.78845"
       height="142.78845"
       x="147.03725"
       y="101.93601"
       style="fill:none;fill-opacity:1;stroke:#000000;stroke-opacity:1" />
    <g
       id="g3337"
       transform="matrix(1.0690316,0,0,1.3136717,-19.820599,-69.765511)">
      <path
         transform="matrix(0,0.5814935,-0.8415696,0,379.84381,77.443466)"
         d="M 203.57504,185.48459 L 203.57504,148.34955 L 203.57504,111.2145 L 235.73493,129.78203 L 267.89482,148.34955 L 235.73493,166.91707 L 203.57504,185.48459 z"
         inkscape:randomized="0"
         inkscape:rounded="0"
         inkscape:flatsided="false"
         sodipodi:arg2="3.1415927"
         sodipodi:arg1="2.0943951"
         sodipodi:r2="21.439928"
         sodipodi:r1="42.879856"
         sodipodi:cy="148.34955"
         sodipodi:cx="225.01497"
         sodipodi:sides="3"
         id="path2476"
         style="fill:#ffe600;fill-opacity:1;stroke:#000000;stroke-width:2.5;stroke-miterlimit:4;stroke-dasharray:none;stroke-opacity:1"
         sodipodi:type="star" />
      <path
         d="M 243.54544,195.96875 C 243.54544,195.96875 240.7063,159.05676 212.8219,159.05676 M 182.10526,195.97575 C 182.10526,195.97575 184.9444,159.06376 212.8288,159.06376 M 182.52736,195.51449 L 158.57443,195.51449 M 266.68656,195.27066 C 266.68656,195.27066 261.72145,139.32824 212.95696,139.32824 M 159.24216,195.28448 C 159.24216,195.28448 164.20727,139.34207 212.97176,139.34207"
         style="fill:none;fill-opacity:1;fill-rule:evenodd;stroke:#000000;stroke-width:1.5;stroke-linecap:butt;stroke-linejoin:miter;stroke-miterlimit:4;stroke-dasharray:none;stroke-opacity:1"
         id="path2482" />
      <path
         id="path3315"
         d="M 244.22528,194.48741 C 244.17916,194.24633 244.09729,193.72633 244.04334,193.33185 C 243.47284,189.16047 241.98298,183.62229 240.28003,179.34272 C 236.4362,169.68311 230.3776,162.96112 222.92578,160.0883 C 216.45144,157.59231 208.60128,157.66054 202.28504,160.2677 C 195.36662,163.12342 189.65737,169.2781 185.9955,177.82812 C 183.93305,182.64371 182.01206,189.53567 181.55198,193.77016 L 181.44375,194.76634 L 170.78346,194.76634 L 160.12317,194.76634 L 160.21915,194.08894 C 161.44649,185.42691 164.23789,176.33746 167.94484,168.93231 C 173.5291,157.77695 181.22301,149.74001 190.80911,145.0486 C 196.87419,142.08038 202.92863,140.59749 210.36865,140.25797 C 219.79054,139.828 228.09648,141.47988 235.59637,145.27523 C 243.44455,149.24681 249.84117,155.28503 255.04245,163.6317 C 256.72119,166.32563 259.28816,171.44679 260.50364,174.52687 C 262.98056,180.80357 264.87383,187.93507 265.71812,194.16863 L 265.82067,194.92573 L 255.06487,194.92573 L 244.30909,194.92573 L 244.22528,194.48741 z"
         style="fill:#ffff00;fill-opacity:1;stroke:#000000;stroke-width:0.23908189;stroke-miterlimit:4;stroke-dasharray:none;stroke-opacity:1" />
    </g>
  </g>
</svg>
